<svg id="visual" viewBox="0 0 900 600" width="900" height="600" xmlns="http://www.w3.org/2000/svg" xmlns:xlink="http://www.w3.org/1999/xlink" version="1.1"><rect x="0" y="0" width="900" height="600" fill="#001220"></rect><path d="M0 430L21.5 423.8C43 417.7 86 405.3 128.8 393.3C171.7 381.3 214.3 369.7 257.2 369.8C300 370 343 382 385.8 388.5C428.7 395 471.3 396 514.2 400.2C557 404.3 600 411.7 642.8 406C685.7 400.3 728.3 381.7 771.2 386.5C814 391.3 857 419.7 878.5 433.8L900 448L900 601L878.5 601C857 601 814 601 771.2 601C728.3 601 685.7 601 642.8 601C600 601 557 601 514.2 601C471.3 601 428.7 601 385.8 601C343 601 300 601 257.2 601C214.3 601 171.7 601 128.8 601C86 601 43 601 21.5 601L0 601Z" fill="#5d8bf4"></path><path d="M0 406L21.5 405.7C43 405.3 86 404.7 128.8 412.8C171.7 421 214.3 438 257.2 449.3C300 460.7 343 466.3 385.8 469.7C428.7 473 471.3 474 514.2 471.7C557 469.3 600 463.7 642.8 454.2C685.7 444.7 728.3 431.3 771.2 421.2C814 411 857 404 878.5 400.5L900 397L900 601L878.5 601C857 601 814 601 771.2 601C728.3 601 685.7 601 642.8 601C600 601 557 601 514.2 601C471.3 601 428.7 601 385.8 601C343 601 300 601 257.2 601C214.3 601 171.7 601 128.8 601C86 601 43 601 21.5 601L0 601Z" fill="#4579f9"></path><path d="M0 504L21.5 498.2C43 492.3 86 480.7 128.8 472.8C171.7 465 214.3 461 257.2 467.5C300 474 343 491 385.8 494.5C428.7 498 471.3 488 514.2 482.8C557 477.7 600 477.3 642.8 476.3C685.7 475.3 728.3 473.7 771.2 478.3C814 483 857 494 878.5 499.5L900 505L900 601L878.5 601C857 601 814 601 771.2 601C728.3 601 685.7 601 642.8 601C600 601 557 601 514.2 601C471.3 601 428.7 601 385.8 601C343 601 300 601 257.2 601C214.3 601 171.7 601 128.8 601C86 601 43 601 21.5 601L0 601Z" fill="#3165fc"></path><path d="M0 513L21.5 508.3C43 503.7 86 494.3 128.8 499.2C171.7 504 214.3 523 257.2 526C300 529 343 516 385.8 509.5C428.7 503 471.3 503 514.2 501C557 499 600 495 642.8 493.5C685.7 492 728.3 493 771.2 496.8C814 500.7 857 507.3 878.5 510.7L900 514L900 601L878.5 601C857 601 814 601 771.2 601C728.3 601 685.7 601 642.8 601C600 601 557 601 514.2 601C471.3 601 428.7 601 385.8 601C343 601 300 601 257.2 601C214.3 601 171.7 601 128.8 601C86 601 43 601 21.5 601L0 601Z" fill="#264efd"></path><path d="M0 560L21.5 561.3C43 562.7 86 565.3 128.8 562.8C171.7 560.3 214.3 552.7 257.2 553C300 553.3 343 561.7 385.8 564C428.7 566.3 471.3 562.7 514.2 557.7C557 552.7 600 546.3 642.8 547C685.7 547.7 728.3 555.3 771.2 555.7C814 556 857 549 878.5 545.5L900 542L900 601L878.5 601C857 601 814 601 771.2 601C728.3 601 685.7 601 642.8 601C600 601 557 601 514.2 601C471.3 601 428.7 601 385.8 601C343 601 300 601 257.2 601C214.3 601 171.7 601 128.8 601C86 601 43 601 21.5 601L0 601Z" fill="#2d31fa"></path></svg>